<mxfile host="app.diagrams.net" agent="Mozilla/5.0 (Windows NT 10.0; Win64; x64) AppleWebKit/537.36 (KHTML, like Gecko) Chrome/114.0.0.0 Safari/537.36" version="24.7.6">
  <diagram name="Page-1" id="c4acf3e9-155e-7222-9cf6-157b1a14988f">
    <mxGraphModel dx="529" dy="767" grid="1" gridSize="10" guides="1" tooltips="1" connect="1" arrows="1" fold="1" page="0" pageScale="1" pageWidth="850" pageHeight="1100" background="none" math="0" shadow="0">
      <root>
        <mxCell id="0" />
        <mxCell id="1" parent="0" />
        <mxCell id="_VawQS5tZA4y5lR53ruD-1" value="thread" style="swimlane;fontStyle=1;align=center;verticalAlign=top;childLayout=stackLayout;horizontal=1;startSize=26;horizontalStack=0;resizeParent=1;resizeParentMax=0;resizeLast=0;collapsible=1;marginBottom=0;whiteSpace=wrap;html=1;" vertex="1" parent="1">
          <mxGeometry x="400" y="610" width="160" height="86" as="geometry" />
        </mxCell>
        <mxCell id="_VawQS5tZA4y5lR53ruD-2" value="+ field: type" style="text;strokeColor=none;fillColor=none;align=left;verticalAlign=top;spacingLeft=4;spacingRight=4;overflow=hidden;rotatable=0;points=[[0,0.5],[1,0.5]];portConstraint=eastwest;whiteSpace=wrap;html=1;" vertex="1" parent="_VawQS5tZA4y5lR53ruD-1">
          <mxGeometry y="26" width="160" height="26" as="geometry" />
        </mxCell>
        <mxCell id="_VawQS5tZA4y5lR53ruD-3" value="" style="line;strokeWidth=1;fillColor=none;align=left;verticalAlign=middle;spacingTop=-1;spacingLeft=3;spacingRight=3;rotatable=0;labelPosition=right;points=[];portConstraint=eastwest;strokeColor=inherit;" vertex="1" parent="_VawQS5tZA4y5lR53ruD-1">
          <mxGeometry y="52" width="160" height="8" as="geometry" />
        </mxCell>
        <mxCell id="_VawQS5tZA4y5lR53ruD-4" value="+ method(type): type" style="text;strokeColor=none;fillColor=none;align=left;verticalAlign=top;spacingLeft=4;spacingRight=4;overflow=hidden;rotatable=0;points=[[0,0.5],[1,0.5]];portConstraint=eastwest;whiteSpace=wrap;html=1;" vertex="1" parent="_VawQS5tZA4y5lR53ruD-1">
          <mxGeometry y="60" width="160" height="26" as="geometry" />
        </mxCell>
        <mxCell id="_VawQS5tZA4y5lR53ruD-11" value="thread1" style="html=1;whiteSpace=wrap;" vertex="1" parent="1">
          <mxGeometry x="250" y="80" width="110" height="50" as="geometry" />
        </mxCell>
        <mxCell id="_VawQS5tZA4y5lR53ruD-12" value="thread2" style="html=1;whiteSpace=wrap;" vertex="1" parent="1">
          <mxGeometry x="360" y="80" width="110" height="50" as="geometry" />
        </mxCell>
        <mxCell id="_VawQS5tZA4y5lR53ruD-13" value="thread3" style="html=1;whiteSpace=wrap;" vertex="1" parent="1">
          <mxGeometry x="470" y="80" width="110" height="50" as="geometry" />
        </mxCell>
        <mxCell id="_VawQS5tZA4y5lR53ruD-14" value="线程池" style="text;html=1;align=center;verticalAlign=middle;resizable=0;points=[];autosize=1;strokeColor=none;fillColor=none;" vertex="1" parent="1">
          <mxGeometry x="530" y="40" width="60" height="30" as="geometry" />
        </mxCell>
        <mxCell id="_VawQS5tZA4y5lR53ruD-15" value="..." style="html=1;whiteSpace=wrap;" vertex="1" parent="1">
          <mxGeometry x="580" y="80" width="110" height="50" as="geometry" />
        </mxCell>
        <mxCell id="_VawQS5tZA4y5lR53ruD-16" value="thread n" style="html=1;whiteSpace=wrap;" vertex="1" parent="1">
          <mxGeometry x="690" y="80" width="110" height="50" as="geometry" />
        </mxCell>
        <mxCell id="_VawQS5tZA4y5lR53ruD-17" value="task1" style="html=1;whiteSpace=wrap;" vertex="1" parent="1">
          <mxGeometry x="250" y="300" width="110" height="50" as="geometry" />
        </mxCell>
        <mxCell id="_VawQS5tZA4y5lR53ruD-18" value="task2" style="html=1;whiteSpace=wrap;" vertex="1" parent="1">
          <mxGeometry x="360" y="300" width="110" height="50" as="geometry" />
        </mxCell>
        <mxCell id="_VawQS5tZA4y5lR53ruD-19" value="task3" style="html=1;whiteSpace=wrap;" vertex="1" parent="1">
          <mxGeometry x="470" y="300" width="110" height="50" as="geometry" />
        </mxCell>
        <mxCell id="_VawQS5tZA4y5lR53ruD-20" value="..." style="html=1;whiteSpace=wrap;" vertex="1" parent="1">
          <mxGeometry x="580" y="300" width="110" height="50" as="geometry" />
        </mxCell>
        <mxCell id="_VawQS5tZA4y5lR53ruD-21" value="task n" style="html=1;whiteSpace=wrap;" vertex="1" parent="1">
          <mxGeometry x="690" y="300" width="110" height="50" as="geometry" />
        </mxCell>
        <mxCell id="_VawQS5tZA4y5lR53ruD-22" value="线程数量" style="html=1;whiteSpace=wrap;" vertex="1" parent="1">
          <mxGeometry x="890" y="60" width="110" height="50" as="geometry" />
        </mxCell>
        <mxCell id="_VawQS5tZA4y5lR53ruD-23" value="线程上限" style="html=1;whiteSpace=wrap;" vertex="1" parent="1">
          <mxGeometry x="890" y="110" width="110" height="50" as="geometry" />
        </mxCell>
        <mxCell id="_VawQS5tZA4y5lR53ruD-24" value="任务队列要考虑线程安全问题" style="html=1;whiteSpace=wrap;" vertex="1" parent="1">
          <mxGeometry x="870" y="300" width="200" height="50" as="geometry" />
        </mxCell>
        <mxCell id="_VawQS5tZA4y5lR53ruD-25" value="最多处理的任务数量" style="html=1;whiteSpace=wrap;" vertex="1" parent="1">
          <mxGeometry x="870" y="350" width="160" height="50" as="geometry" />
        </mxCell>
        <mxCell id="_VawQS5tZA4y5lR53ruD-26" value="task怎么接收任意类型的任务输入" style="html=1;whiteSpace=wrap;" vertex="1" parent="1">
          <mxGeometry x="870" y="400" width="230" height="50" as="geometry" />
        </mxCell>
        <mxCell id="_VawQS5tZA4y5lR53ruD-28" value="生产者线程" style="html=1;whiteSpace=wrap;" vertex="1" parent="1">
          <mxGeometry x="30" y="191" width="110" height="50" as="geometry" />
        </mxCell>
        <mxCell id="_VawQS5tZA4y5lR53ruD-29" value="消费者线程" style="html=1;whiteSpace=wrap;" vertex="1" parent="1">
          <mxGeometry x="250" y="191" width="110" height="50" as="geometry" />
        </mxCell>
        <mxCell id="_VawQS5tZA4y5lR53ruD-30" value="" style="line;strokeWidth=1;fillColor=none;align=left;verticalAlign=middle;spacingTop=-1;spacingLeft=3;spacingRight=3;rotatable=0;labelPosition=right;points=[];portConstraint=eastwest;strokeColor=inherit;" vertex="1" parent="1">
          <mxGeometry x="140" y="212" width="110" height="8" as="geometry" />
        </mxCell>
        <mxCell id="_VawQS5tZA4y5lR53ruD-31" value="线程通信" style="text;html=1;align=center;verticalAlign=middle;resizable=0;points=[];autosize=1;strokeColor=none;fillColor=none;" vertex="1" parent="1">
          <mxGeometry x="150" y="190" width="70" height="30" as="geometry" />
        </mxCell>
        <mxCell id="_VawQS5tZA4y5lR53ruD-32" value="task任务抽象基类" style="swimlane;fontStyle=1;align=center;verticalAlign=top;childLayout=stackLayout;horizontal=1;startSize=26;horizontalStack=0;resizeParent=1;resizeParentMax=0;resizeLast=0;collapsible=1;marginBottom=0;whiteSpace=wrap;html=1;" vertex="1" parent="1">
          <mxGeometry x="400" y="520" width="160" height="52" as="geometry" />
        </mxCell>
        <mxCell id="_VawQS5tZA4y5lR53ruD-35" value="virtual void run()" style="text;strokeColor=none;fillColor=none;align=left;verticalAlign=top;spacingLeft=4;spacingRight=4;overflow=hidden;rotatable=0;points=[[0,0.5],[1,0.5]];portConstraint=eastwest;whiteSpace=wrap;html=1;" vertex="1" parent="_VawQS5tZA4y5lR53ruD-32">
          <mxGeometry y="26" width="160" height="26" as="geometry" />
        </mxCell>
        <mxCell id="_VawQS5tZA4y5lR53ruD-36" value="threadPool" style="swimlane;fontStyle=1;align=center;verticalAlign=top;childLayout=stackLayout;horizontal=1;startSize=26;horizontalStack=0;resizeParent=1;resizeParentMax=0;resizeLast=0;collapsible=1;marginBottom=0;whiteSpace=wrap;html=1;" vertex="1" parent="1">
          <mxGeometry x="400" y="720" width="250" height="736" as="geometry" />
        </mxCell>
        <mxCell id="_VawQS5tZA4y5lR53ruD-45" value="成员变量" style="html=1;whiteSpace=wrap;" vertex="1" parent="_VawQS5tZA4y5lR53ruD-36">
          <mxGeometry y="26" width="250" height="50" as="geometry" />
        </mxCell>
        <mxCell id="_VawQS5tZA4y5lR53ruD-37" value="std::vector&amp;lt;Thread*&amp;gt; threads_" style="text;strokeColor=none;fillColor=none;align=left;verticalAlign=top;spacingLeft=4;spacingRight=4;overflow=hidden;rotatable=0;points=[[0,0.5],[1,0.5]];portConstraint=eastwest;whiteSpace=wrap;html=1;" vertex="1" parent="_VawQS5tZA4y5lR53ruD-36">
          <mxGeometry y="76" width="250" height="26" as="geometry" />
        </mxCell>
        <mxCell id="_VawQS5tZA4y5lR53ruD-38" value="" style="line;strokeWidth=1;fillColor=none;align=left;verticalAlign=middle;spacingTop=-1;spacingLeft=3;spacingRight=3;rotatable=0;labelPosition=right;points=[];portConstraint=eastwest;strokeColor=inherit;" vertex="1" parent="_VawQS5tZA4y5lR53ruD-36">
          <mxGeometry y="102" width="250" height="8" as="geometry" />
        </mxCell>
        <mxCell id="_VawQS5tZA4y5lR53ruD-39" value="初始的线程数量" style="text;strokeColor=none;fillColor=none;align=left;verticalAlign=top;spacingLeft=4;spacingRight=4;overflow=hidden;rotatable=0;points=[[0,0.5],[1,0.5]];portConstraint=eastwest;whiteSpace=wrap;html=1;" vertex="1" parent="_VawQS5tZA4y5lR53ruD-36">
          <mxGeometry y="110" width="250" height="26" as="geometry" />
        </mxCell>
        <mxCell id="_VawQS5tZA4y5lR53ruD-41" value="任务队列task" style="html=1;whiteSpace=wrap;" vertex="1" parent="_VawQS5tZA4y5lR53ruD-36">
          <mxGeometry y="136" width="250" height="50" as="geometry" />
        </mxCell>
        <mxCell id="_VawQS5tZA4y5lR53ruD-43" value="任务数量atomic_uint taskSize_&amp;nbsp;" style="html=1;whiteSpace=wrap;" vertex="1" parent="_VawQS5tZA4y5lR53ruD-36">
          <mxGeometry y="186" width="250" height="50" as="geometry" />
        </mxCell>
        <mxCell id="_VawQS5tZA4y5lR53ruD-44" value="任务数量阈值" style="html=1;whiteSpace=wrap;" vertex="1" parent="_VawQS5tZA4y5lR53ruD-36">
          <mxGeometry y="236" width="250" height="50" as="geometry" />
        </mxCell>
        <mxCell id="_VawQS5tZA4y5lR53ruD-46" value="任务队列的线程安全 mutex锁" style="html=1;whiteSpace=wrap;" vertex="1" parent="_VawQS5tZA4y5lR53ruD-36">
          <mxGeometry y="286" width="250" height="50" as="geometry" />
        </mxCell>
        <mxCell id="_VawQS5tZA4y5lR53ruD-48" value="条件变量 notfull" style="html=1;whiteSpace=wrap;" vertex="1" parent="_VawQS5tZA4y5lR53ruD-36">
          <mxGeometry y="336" width="250" height="50" as="geometry" />
        </mxCell>
        <mxCell id="_VawQS5tZA4y5lR53ruD-49" value="条件变量 notempty" style="html=1;whiteSpace=wrap;" vertex="1" parent="_VawQS5tZA4y5lR53ruD-36">
          <mxGeometry y="386" width="250" height="50" as="geometry" />
        </mxCell>
        <mxCell id="_VawQS5tZA4y5lR53ruD-51" value="&lt;b&gt;成员方法&lt;/b&gt;" style="html=1;whiteSpace=wrap;" vertex="1" parent="_VawQS5tZA4y5lR53ruD-36">
          <mxGeometry y="436" width="250" height="50" as="geometry" />
        </mxCell>
        <mxCell id="_VawQS5tZA4y5lR53ruD-52" value="设置线程池模式setMode()" style="html=1;whiteSpace=wrap;" vertex="1" parent="_VawQS5tZA4y5lR53ruD-36">
          <mxGeometry y="486" width="250" height="50" as="geometry" />
        </mxCell>
        <mxCell id="_VawQS5tZA4y5lR53ruD-54" value="开启线程池start()" style="html=1;whiteSpace=wrap;" vertex="1" parent="_VawQS5tZA4y5lR53ruD-36">
          <mxGeometry y="536" width="250" height="50" as="geometry" />
        </mxCell>
        <mxCell id="_VawQS5tZA4y5lR53ruD-55" value="任务上限的阈值交给用户设定" style="html=1;whiteSpace=wrap;" vertex="1" parent="_VawQS5tZA4y5lR53ruD-36">
          <mxGeometry y="586" width="250" height="50" as="geometry" />
        </mxCell>
        <mxCell id="_VawQS5tZA4y5lR53ruD-56" value="给往任务队列提交任务&lt;div&gt;void submitTask(std::shared_ptr&amp;lt;Task&amp;gt; sp)&lt;/div&gt;" style="html=1;whiteSpace=wrap;" vertex="1" parent="_VawQS5tZA4y5lR53ruD-36">
          <mxGeometry y="636" width="250" height="50" as="geometry" />
        </mxCell>
        <mxCell id="_VawQS5tZA4y5lR53ruD-57" value="threadfunc()要被绑定然后传给线程，而且要先传进去具体的task" style="html=1;whiteSpace=wrap;" vertex="1" parent="_VawQS5tZA4y5lR53ruD-36">
          <mxGeometry y="686" width="250" height="50" as="geometry" />
        </mxCell>
        <mxCell id="_VawQS5tZA4y5lR53ruD-40" value="HeadPool.h" style="text;html=1;align=center;verticalAlign=middle;resizable=0;points=[];autosize=1;strokeColor=none;fillColor=none;" vertex="1" parent="1">
          <mxGeometry x="405" y="468" width="90" height="30" as="geometry" />
        </mxCell>
        <mxCell id="_VawQS5tZA4y5lR53ruD-47" value="不空则可以消费&lt;div&gt;不满则可以生产&lt;/div&gt;" style="whiteSpace=wrap;html=1;" vertex="1" parent="1">
          <mxGeometry x="580" y="380" width="120" height="60" as="geometry" />
        </mxCell>
        <mxCell id="_VawQS5tZA4y5lR53ruD-58" value="任务队列不满，就往任务队列里面放任务" style="html=1;whiteSpace=wrap;" vertex="1" parent="1">
          <mxGeometry x="710" y="1310" width="230" height="50" as="geometry" />
        </mxCell>
        <mxCell id="_VawQS5tZA4y5lR53ruD-59" value="添加了任务就通知线程可以来取任务了" style="html=1;whiteSpace=wrap;" vertex="1" parent="1">
          <mxGeometry x="1000" y="1310" width="110" height="50" as="geometry" />
        </mxCell>
        <mxCell id="_VawQS5tZA4y5lR53ruD-60" value="任务队列满了，那就阻塞1s，之后再判断， 还是满，那就返回" style="html=1;whiteSpace=wrap;" vertex="1" parent="1">
          <mxGeometry x="710" y="1360" width="350" height="50" as="geometry" />
        </mxCell>
        <mxCell id="_VawQS5tZA4y5lR53ruD-61" value="不能一直阻塞在这，因为其他线程还是得来消费的" style="text;html=1;align=center;verticalAlign=middle;resizable=0;points=[];autosize=1;strokeColor=none;fillColor=none;" vertex="1" parent="1">
          <mxGeometry x="710" y="1413" width="290" height="30" as="geometry" />
        </mxCell>
        <mxCell id="_VawQS5tZA4y5lR53ruD-62" value="用于获取实际的任务，然后让任务队列-1，然后task&amp;nbsp; run起来，并通知别的线程可以来取" style="html=1;whiteSpace=wrap;" vertex="1" parent="1">
          <mxGeometry x="731" y="1490" width="339" height="50" as="geometry" />
        </mxCell>
        <mxCell id="_VawQS5tZA4y5lR53ruD-63" style="edgeStyle=orthogonalEdgeStyle;rounded=0;orthogonalLoop=1;jettySize=auto;html=1;entryX=0;entryY=0.5;entryDx=0;entryDy=0;" edge="1" parent="1" source="_VawQS5tZA4y5lR53ruD-57" target="_VawQS5tZA4y5lR53ruD-62">
          <mxGeometry relative="1" as="geometry" />
        </mxCell>
      </root>
    </mxGraphModel>
  </diagram>
</mxfile>
